HIERARCHY
ROOT hip
{
	OFFSET 0.000000 0.000000 0.000000 
	CHANNELS 6 Xposition Yposition Zposition Xrotation Zrotation Yrotation
	JOINT abdomen
	{
		OFFSET 0.000000 3.402643 0.000000 
		CHANNELS 3 Xrotation Zrotation Yrotation
		JOINT chest
		{
			OFFSET 0.000000 8.438565 -0.680529 
			CHANNELS 3 Xrotation Zrotation Yrotation
			JOINT neck
			{
				OFFSET 0.000000 10.207942 -0.272212 
				CHANNELS 3 Xrotation Zrotation Yrotation
				JOINT head
				{
					OFFSET 0.000000 3.130431 0.000000 
					CHANNELS 3 Xrotation Zrotation Yrotation
					End Site
					{
						OFFSET 0.000000 3.130435 0.000000 
					}
				}
			}
			JOINT lCollar
			{
				OFFSET 3.470700 6.669187 -0.816635 
				CHANNELS 3 Yrotation Zrotation Xrotation
				JOINT lShldr
				{
					OFFSET 3.198488 0.000000 0.000000 
					CHANNELS 3 Zrotation Yrotation Xrotation
					JOINT lForeArm
					{
						OFFSET 10.139888 0.000000 0.000000 
						CHANNELS 3 Yrotation Zrotation Xrotation
						JOINT lHand
						{
							OFFSET 8.370511 0.000000 0.000000 
							CHANNELS 3 Zrotation Yrotation Xrotation
							End Site
							{
								OFFSET 4.083176 0.000000 0.000000 
							}
						}
					}
				}
			}
			JOINT rCollar
			{
				OFFSET -3.470700 6.669187 -0.816635 
				CHANNELS 3 Yrotation Zrotation Xrotation
				JOINT rShldr
				{
					OFFSET -3.198488 0.000000 0.000000 
					CHANNELS 3 Zrotation Yrotation Xrotation
					JOINT rForeArm
					{
						OFFSET -10.139888 0.000000 0.000000 
						CHANNELS 3 Yrotation Zrotation Xrotation
						JOINT rHand
						{
							OFFSET -8.370511 0.000000 0.000000 
							CHANNELS 3 Zrotation Yrotation Xrotation
							End Site
							{
								OFFSET -4.083176 0.000000 0.000000 
							}
						}
					}
				}
			}
		}
	}
	JOINT lThigh
	{
		OFFSET 5.308129 -1.633274 1.361059 
		CHANNELS 3 Xrotation Zrotation Yrotation
		JOINT lShin
		{
			OFFSET -2.041588 -20.007561 0.000000 
			CHANNELS 3 Xrotation Zrotation Yrotation
			JOINT lFoot
			{
				OFFSET 0.000000 -19.190928 -1.224953 
				CHANNELS 3 Xrotation Yrotation Zrotation
				End Site
				{
					OFFSET 0.000000 -2.449906 4.627600 
				}
			}
		}
	}
	JOINT rThigh
	{
		OFFSET -5.308129 -1.633274 1.361059 
		CHANNELS 3 Xrotation Zrotation Yrotation
		JOINT rShin
		{
			OFFSET 2.041588 -20.007561 0.000000 
			CHANNELS 3 Xrotation Zrotation Yrotation
			JOINT rFoot
			{
				OFFSET 0.000000 -19.190928 -1.224953 
				CHANNELS 3 Xrotation Yrotation Zrotation
				End Site
				{
					OFFSET 0.000000 -2.449906 4.627600 
				}
			}
		}
	}
}
MOTION
Frames: 19
Frame Time: 0.011111
22.173143 23.311523 16.876789 6.677207 -14.831321 -115.343697 82.010330 1.592442 3.579675 -22.486986 7.999393 -2.271974 -9.525743 5.056489 19.695742 15.330636 -20.096588 38.593796 9.969777 -14.785672 3.853935 -58.198650 -55.062904 6.585635 -78.511429 7.130270 21.569889 8.524705 12.647240 -11.360730 -4.049711 8.641859 2.072876 78.776566 7.143180 44.278233 51.598164 -8.058527 8.811452 -8.534408 -12.637552 58.929539 -75.689301 61.568993 0.219929 140.549484 7.920182 -7.453094 -44.546497 -37.245979 -37.021896 -88.002861 -44.938637 2.056442 142.969940 -8.181506 7.179581 -9.010595 32.774246 11.113507 
22.154661 23.407381 16.605503 8.063004 -14.228959 -114.990883 82.670387 2.574474 5.557582 -23.186277 7.551728 -2.196352 -9.475031 4.922573 19.805481 14.314882 -20.190952 38.959225 9.969777 -14.785672 3.853935 -58.050694 -55.346367 7.079544 -79.302597 6.802603 22.046410 8.524705 12.647240 -11.575575 -4.049711 8.641859 2.072876 78.420784 7.697857 43.078896 50.175316 -7.751892 8.236588 -8.534408 -12.637552 56.009624 -80.779861 61.873913 -4.889255 140.598511 7.919967 -7.458382 -43.620342 -37.451988 -36.410118 -85.518631 -43.579063 1.145999 141.685959 -8.075324 7.331495 -13.566407 31.168425 12.952432 
22.131794 23.451241 16.368986 7.502283 -14.256176 -114.479454 83.038399 2.567170 5.572153 -24.082333 7.534165 -2.217571 -9.286615 4.870533 19.844572 13.672927 -20.386364 39.131428 9.969777 -14.785672 3.853935 -58.295357 -55.539307 7.181436 -80.113869 6.427449 22.534538 8.524705 12.647240 -12.327528 -4.049711 8.641859 2.072876 77.486000 8.260207 42.446152 48.787857 -7.416658 7.673678 -8.534408 -12.637552 53.070171 -80.037270 60.194115 -4.348822 140.648972 7.930160 -7.438165 -41.653763 -36.949749 -34.284801 -84.817741 -44.449429 1.541235 140.592621 -7.964327 7.421482 -23.137386 29.264221 16.867029 
22.165312 23.640139 16.063868 5.935227 -14.703983 -114.112923 83.296707 1.530122 4.339727 -24.588356 8.244723 -2.229042 -9.366811 4.771168 19.934725 13.191575 -20.735199 39.359791 9.969777 -14.785672 3.853935 -57.149899 -55.876102 8.628367 -80.519707 6.229390 22.797787 8.524705 12.647240 -10.921279 -4.049711 8.641859 2.072876 76.619545 9.444558 41.281704 47.345749 -7.053216 7.116277 -8.534408 -12.637552 48.870956 -76.669579 58.586441 -0.972722 140.310623 7.891833 -7.481239 -39.501656 -36.555149 -32.230473 -89.245209 -42.928505 8.034917 139.132004 -7.809221 7.565275 -15.317615 35.657928 15.654725 
22.161240 23.764816 15.775978 5.307916 -15.078290 -113.715378 83.904823 1.144443 4.133691 -24.865583 8.385237 -2.224759 -9.974034 4.229673 20.096392 12.800897 -20.005806 39.741051 9.969777 -14.785672 3.853935 -57.071999 -56.747890 8.910798 -81.159950 5.888750 23.214630 8.524705 12.647240 -11.585340 -4.049711 8.641859 2.072876 75.719727 11.187214 40.619316 46.001827 -6.682893 6.596966 -8.534408 -12.637552 44.847515 -76.009857 57.144260 -0.794082 140.221954 7.892041 -7.479681 -36.734512 -37.307404 -30.731699 -89.709885 -42.399796 10.556909 138.267593 -7.704220 7.669812 -10.588471 40.062309 14.440275 
22.100153 23.887617 15.561080 4.594882 -15.911669 -112.938622 84.712646 1.104175 3.923864 -25.159019 8.039507 -2.274109 -10.179532 4.470880 19.987221 12.628682 -19.893444 39.611454 9.969777 -14.785672 3.853935 -56.761318 -57.554180 9.298902 -81.784355 5.525898 23.639324 8.524705 12.647240 -13.079480 -4.049711 8.641859 2.072876 75.298279 13.073775 38.990261 44.468559 -6.229663 6.009423 -8.534408 -12.637552 40.267433 -73.458656 54.222496 0.180169 140.032745 7.871585 -7.514361 -34.029510 -37.191601 -28.634459 -89.229774 -43.483368 12.419254 137.920883 -7.673745 7.708216 -11.469700 42.577724 15.902672 
22.054104 23.918943 15.322685 3.971643 -16.203468 -112.557655 84.937279 0.797281 3.594796 -25.434683 7.974253 -2.267503 -10.008025 5.259982 19.715549 12.619567 -20.646076 39.118992 9.969777 -14.785672 3.853935 -56.313751 -58.026283 9.382884 -82.298744 5.202178 24.011679 8.524705 12.647240 -14.778699 -4.049711 8.641859 2.072876 73.717125 14.210712 39.833641 43.925465 -6.066954 5.812072 -8.534408 -12.637552 37.992043 -72.174477 52.185005 1.009070 140.102997 7.881928 -7.489635 -35.103928 -33.985523 -26.926517 -88.448105 -44.117977 12.963871 138.039413 -7.674177 7.690776 -14.264772 43.651054 18.258522 
22.147457 24.066492 15.332397 1.635212 -17.208336 -110.475876 85.853958 1.591370 1.728003 -26.516634 7.922069 -2.809962 -9.982290 4.914281 19.855173 12.374327 -20.202143 39.441940 9.969777 -14.785672 3.853935 -55.042068 -58.111782 9.926312 -82.765755 4.883939 24.358519 8.524705 12.647240 -15.354872 -4.049711 8.641859 2.072876 72.164352 15.159052 39.971710 43.413193 -5.902179 5.620374 -8.534408 -12.637552 34.945168 -67.736130 42.308666 3.384501 139.704697 7.833700 -7.543443 -34.245785 -28.305653 -21.915829 -89.919762 -47.548107 15.612741 137.683411 -7.642610 7.703552 -19.453377 44.454910 22.376125 
22.030294 23.915497 14.793269 3.557499 -15.342270 -112.868263 84.158546 -0.032874 3.933971 -25.946131 7.695121 -1.925880 -10.131249 4.207598 19.961264 12.390051 -19.082869 39.625515 9.969777 -14.785672 3.853935 -54.418819 -58.529469 10.517029 -83.139885 4.611976 24.654860 8.524705 12.647240 -16.302137 -4.049711 8.641859 2.072876 70.474678 16.395092 40.350239 42.912903 -5.745515 5.436961 -8.534408 -12.637552 32.884624 -74.441513 53.514332 -0.099379 140.341202 7.902332 -7.460371 -36.290264 -32.729424 -26.675348 -84.308685 -43.834610 8.531657 138.743652 -7.742709 7.608914 -28.644293 37.634048 25.128004 
22.001162 23.803974 14.590274 5.388825 -13.901157 -113.353806 83.408516 0.699998 6.610238 -25.919310 6.534297 -1.499617 -10.079836 4.016787 19.951502 12.221973 -18.843603 39.593204 9.969777 -14.785672 3.853935 -54.032394 -59.251541 10.950091 -83.346542 4.453295 24.824781 8.524705 12.647240 -18.059950 -4.049711 8.641859 2.072876 69.050354 17.657259 39.927109 42.300488 -5.540655 5.209312 -8.534408 -12.637552 30.062361 -81.969986 55.779701 -6.880002 140.956573 7.960604 -7.415810 -36.660782 -34.200169 -28.133789 -77.413300 -42.299774 0.933037 139.021500 -7.782793 7.593443 -38.311867 27.416405 23.335335 
21.992390 23.793636 14.359713 7.113516 -12.520991 -113.838181 82.655312 1.366722 9.043973 -25.777794 5.517822 -1.107049 -10.132594 4.303468 19.813896 12.329850 -19.147669 39.330757 9.969777 -14.785672 3.853935 -53.555355 -60.130924 11.223478 -83.425949 4.392622 24.901947 8.524705 12.647240 -20.159557 -4.049711 8.641859 2.072876 67.376122 18.918299 39.992443 41.903824 -5.413932 5.071383 -8.534408 -12.637552 28.118998 -86.502022 57.919006 -11.174211 140.618973 7.929883 -7.454400 -40.455978 -32.311798 -29.144291 -75.847633 -38.768414 -1.339410 139.787567 -7.875472 7.502059 -32.081795 31.597763 23.193834 
21.946028 23.781418 14.204645 6.840908 -12.035168 -113.549576 81.944237 1.599764 9.451947 -25.815289 4.855723 -0.959971 -10.431952 4.868036 19.539219 12.829234 -19.471033 38.760651 9.969777 -14.785672 3.853935 -53.069298 -61.000862 11.577723 -83.490334 4.344060 24.958155 8.524705 12.647240 -21.809948 -4.049711 8.641859 2.072876 65.640190 19.974430 39.208736 41.832306 -5.385736 5.040189 -8.534408 -12.637552 26.966656 -86.247574 55.711758 -11.819940 140.439835 7.911966 -7.471318 -40.714119 -31.420691 -28.457582 -75.827248 -38.728775 -2.122034 140.304688 -7.933831 7.445623 -32.596973 29.122881 21.661867 
21.919086 23.834360 13.931167 4.510293 -12.675440 -112.381256 81.509407 0.985578 7.268435 -26.051731 5.342012 -1.163149 -10.695878 5.153491 19.410580 12.857318 -19.997728 38.475445 9.969777 -14.785672 3.853935 -52.921864 -61.799881 11.906765 -83.534897 4.304742 24.992393 8.524705 12.647240 -23.294323 -4.049711 8.641859 2.072876 63.687199 20.899675 38.470676 41.975365 -5.442036 5.103580 -8.534408 -12.637552 26.781111 -80.654213 49.960827 -8.643321 139.873703 7.847619 -7.511284 -37.859264 -32.288353 -27.326141 -77.963387 -42.545544 -0.786358 140.948380 -7.976424 7.406654 -33.745094 28.403734 21.696625 
21.973595 24.154516 13.418353 -5.868350 -15.175668 -108.549789 80.490791 -3.180616 -3.379037 -26.517078 8.627536 -2.187167 -10.782104 5.463540 19.365778 12.631308 -20.836935 38.420101 9.969777 -14.785672 3.853935 -52.947590 -62.722946 12.370916 -83.449974 4.374437 24.924545 8.524705 12.647240 -24.807993 -4.049711 8.641859 2.072876 61.791157 21.604946 37.944832 42.301125 -5.547877 5.215854 -8.534408 -12.637552 27.357279 -65.970711 32.779598 3.923185 137.751190 7.628871 -7.712850 -33.445469 -28.991035 -22.018753 -98.900887 -53.992172 17.279810 141.924026 -8.082047 7.289893 -35.100773 33.280449 26.374142 
21.903111 24.246929 13.184657 1.234056 -13.746236 -110.680954 81.003906 -0.607756 4.436642 -26.594584 6.004417 -1.257475 -10.868766 5.752514 19.194485 12.611882 -21.091608 38.103100 9.969777 -14.785672 3.853935 -52.786121 -63.514290 13.383951 -83.489594 4.342953 24.948483 8.524705 12.647240 -26.048233 -4.049711 8.641859 2.072876 60.178139 22.004387 37.132774 42.657677 -5.662953 5.347429 -8.534408 -12.637552 28.177591 -73.081161 44.762947 -3.809313 138.047379 7.652263 -7.702016 -39.728748 -29.536589 -26.059263 -79.969559 -46.805901 1.222890 141.396164 -8.027377 7.354833 -33.933399 30.030439 23.095797 
21.833878 24.376307 12.872647 5.034855 -12.977551 -111.685104 81.405991 0.606762 8.876228 -26.657143 4.392673 -0.680099 -11.137796 5.368212 19.142187 12.450671 -20.440884 37.989388 9.969777 -14.785672 3.853935 -52.822559 -64.098969 14.453751 -83.667511 4.198478 25.114992 8.524705 12.647240 -27.229872 -4.049711 8.641859 2.072876 58.236065 22.422600 36.878052 43.025185 -5.781343 5.477880 -8.534408 -12.637552 28.841652 -77.258812 51.383121 -7.898337 137.839447 7.638266 -7.733885 -49.042049 -20.452377 -21.039715 -71.733467 -40.123573 -4.826054 140.691574 -7.964597 7.404271 -32.753281 28.256498 21.082926 
21.755562 24.503492 12.849465 6.050636 -12.240767 -112.183624 80.881401 1.352715 10.960434 -26.587679 2.852049 -0.328010 -11.425607 4.878565 19.167704 12.144565 -19.896080 38.031704 9.969777 -14.785672 3.853935 -53.229923 -64.940292 15.352298 -83.636253 4.223247 25.082371 8.524705 12.647240 -28.509167 -4.049711 8.641859 2.072876 56.099865 23.029612 36.495651 43.270905 -5.863585 5.567351 -8.534408 -12.637552 29.876812 -80.298225 50.974548 -11.999622 137.265472 7.580258 -7.769172 -45.204288 -27.653639 -27.584438 -71.560844 -36.258766 -4.443554 140.055618 -7.905726 7.478546 -29.839123 28.923355 20.055870 
21.695730 24.692390 12.604179 5.885106 -12.158586 -111.735756 80.382240 1.648510 11.256752 -26.617447 2.536834 -0.251230 -11.262343 5.119935 19.128220 11.671378 -20.921684 38.015011 9.969777 -14.785672 3.853935 -53.709290 -65.536438 16.050955 -83.612892 4.242006 25.059784 8.524705 12.647240 -29.417372 -4.049711 8.641859 2.072876 53.927559 23.829355 35.371098 43.260262 -5.858284 5.569144 -8.534408 -12.637552 31.058451 -80.248833 49.128784 -13.407763 136.521881 7.491999 -7.854378 -41.416168 -31.861446 -29.373297 -71.056992 -35.737572 -4.428128 139.766769 -7.869052 7.523477 -29.406437 29.155506 19.986897 
21.647486 24.869699 12.357328 4.928702 -12.635238 -111.221931 80.157341 1.441364 10.341417 -26.685614 2.672221 -0.349894 -11.139213 5.475960 19.251801 11.264596 -22.155437 38.288765 9.969777 -14.785672 3.853935 -53.932827 -65.816185 16.439734 -83.712318 4.159049 25.149834 8.524705 12.647240 -30.042368 -4.049711 8.641859 2.072876 51.607872 24.814850 34.126644 43.229679 -5.847677 5.551954 -8.534408 -12.637552 31.859234 -77.508057 47.225815 -11.837126 135.839020 7.417420 -7.913948 -41.465874 -30.673454 -28.272535 -71.472054 -36.590294 -3.426335 139.726089 -7.851549 7.521793 -29.643063 29.342026 20.235664 
